<?xml version="1.0" standalone="no"?>
<!DOCTYPE svg PUBLIC "-//W3C//DTD SVG 20010904//EN"
 "http://www.w3.org/TR/2001/REC-SVG-20010904/DTD/svg10.dtd">
<svg version="1.0" xmlns="http://www.w3.org/2000/svg"
 width="160.000000pt" height="173.000000pt" viewBox="0 0 160.000000 173.000000"
 preserveAspectRatio="xMidYMid meet">

<g transform="translate(0.000000,173.000000) scale(0.100000,-0.100000)"
fill="#000000" stroke="none">
<path d="M735 1689 c-120 -9 -190 -51 -269 -161 -52 -73 -54 -79 -65 -169 -7
-52 -14 -107 -17 -124 -4 -16 -9 -86 -13 -155 -3 -70 -10 -119 -14 -112 -11
17 -27 15 -27 -3 0 -8 4 -15 8 -15 18 0 52 -42 52 -63 0 -12 11 -38 24 -58 14
-20 26 -49 28 -65 4 -27 11 -44 57 -144 9 -19 46 -66 83 -104 38 -39 68 -73
68 -77 0 -4 -7 -12 -15 -19 -18 -15 -19 -42 -3 -58 8 -8 15 -9 25 -1 17 15 17
1 -1 -16 -11 -11 -17 -11 -39 0 -33 17 -45 2 -16 -19 14 -9 19 -21 15 -31 -7
-19 -26 -11 -26 11 0 8 -4 14 -10 14 -5 0 -10 -6 -10 -13 0 -16 34 -50 42 -42
11 12 27 -24 57 -129 17 -60 31 -115 31 -122 0 -8 7 -14 15 -14 11 0 13 8 9
33 -5 27 -44 148 -68 212 -6 16 -3 15 16 -6 13 -14 29 -24 34 -22 6 2 29 -45
51 -104 22 -59 46 -109 53 -111 16 -6 8 23 -34 118 -33 74 -41 95 -45 115 -2
6 -9 14 -17 18 -20 11 -18 31 4 22 33 -13 36 -10 33 30 -3 46 -15 72 -45 97
-20 17 -20 17 14 1 19 -10 63 -19 98 -21 50 -4 60 -7 52 -17 -15 -18 -8 -123
8 -130 15 -6 52 15 52 30 0 11 39 39 45 33 2 -2 -18 -27 -46 -57 -27 -29 -49
-58 -49 -64 1 -7 7 -1 15 13 24 43 17 -1 -15 -88 -31 -86 -35 -102 -22 -102
10 0 38 74 58 153 9 37 20 67 24 67 7 0 3 -27 -14 -90 -5 -21 -4 -20 9 5 8 17
19 49 25 73 6 23 14 42 19 42 4 0 -2 -46 -15 -103 -29 -124 -30 -150 -8 -145
19 4 54 151 54 231 0 26 5 47 10 47 6 0 10 -5 10 -11 0 -8 5 -8 15 1 20 16 19
31 0 23 -13 -4 -15 2 -10 38 3 24 2 37 -1 29 -15 -34 -47 -40 -39 -7 4 15 -1
32 -13 47 l-19 24 58 54 c42 39 70 77 99 134 22 44 40 87 40 94 0 8 10 18 23
23 12 5 31 19 42 32 l20 24 -26 -22 c-35 -31 -39 -29 -39 18 0 32 4 42 20 46
15 4 20 14 20 42 0 27 7 44 25 61 30 28 32 44 6 37 -18 -4 -19 2 -20 72 0 42
-5 108 -11 146 -5 39 -14 102 -20 140 -20 138 -27 164 -61 220 -21 36 -49 66
-74 81 -56 33 -189 74 -228 71 -17 -1 -63 -5 -102 -8z m381 -349 c69 -2 89
-310 39 -576 -20 -104 -37 -138 -124 -247 -49 -62 -56 -67 -83 -62 -19 5 -37
1 -54 -10 -24 -15 -88 -16 -113 0 -6 3 -11 1 -11 -6 0 -8 -7 -5 -20 6 -16 14
-22 15 -35 5 -12 -10 -20 -9 -40 4 -94 62 -184 202 -205 317 -6 35 -16 87 -22
116 -24 115 8 362 58 440 l14 22 288 -4 c158 -2 296 -4 308 -5z m-453 -952
c-10 -11 -19 -15 -21 -8 -5 15 18 41 30 34 5 -3 1 -15 -9 -26z m299 -5 c18
-16 25 -43 11 -43 -10 0 -53 42 -53 52 0 13 22 9 42 -9z m-11 -49 c15 -16 19
-24 9 -22 -15 3 -39 27 -40 41 0 12 5 8 31 -19z"/>
<path d="M560 1128 c-19 -13 -35 -29 -38 -36 -3 -10 4 -9 23 4 43 28 120 24
179 -9 37 -20 51 -24 57 -15 13 21 -8 43 -58 61 -67 24 -123 22 -163 -5z"/>
<path d="M976 1134 c-50 -18 -66 -32 -66 -55 0 -24 -1 -24 58 6 57 29 117 32
150 9 27 -19 41 -12 22 11 -36 44 -96 54 -164 29z"/>
<path d="M676 1051 c-4 -5 0 -12 6 -14 7 -3 -4 -6 -25 -6 -44 -1 -97 -23 -122
-51 -15 -17 -15 -20 2 -39 9 -12 21 -21 26 -21 5 0 4 6 -2 14 -14 17 -7 38 20
54 19 12 20 11 14 -8 -10 -32 19 -70 54 -70 40 0 65 31 57 71 -6 32 -6 32 15
14 11 -11 18 -27 16 -37 -3 -10 -1 -18 3 -18 14 0 18 24 7 45 -10 20 -10 20
12 1 13 -12 21 -14 21 -7 0 26 -23 53 -55 67 -40 17 -42 17 -49 5z m1 -64 c-3
-11 -23 -7 -19 4 4 18 -17 9 -32 -13 -9 -12 -16 -18 -16 -12 0 5 7 19 15 32
14 18 19 20 35 9 11 -6 19 -16 17 -20z m-42 -47 c3 -5 1 -10 -4 -10 -6 0 -11
5 -11 10 0 6 2 10 4 10 3 0 8 -4 11 -10z m50 0 c-3 -5 -12 -10 -18 -10 -7 0
-6 4 3 10 19 12 23 12 15 0z"/>
<path d="M940 1034 c-32 -22 -50 -44 -50 -63 0 -8 3 -12 6 -8 4 3 15 -4 25
-16 13 -15 17 -17 13 -5 -6 18 11 58 26 58 5 0 7 -13 4 -29 -5 -21 -1 -34 15
-50 28 -28 46 -27 77 5 20 19 24 31 19 52 l-7 27 26 -24 c20 -19 23 -28 15
-42 -12 -24 -4 -24 20 0 12 12 16 23 10 34 -16 27 -75 57 -115 57 -29 0 -35 3
-24 10 12 8 10 10 -10 10 -14 0 -37 -7 -50 -16z m112 -48 c4 -6 8 -16 8 -23 0
-14 -28 -43 -42 -43 -6 0 0 8 13 18 15 13 20 25 16 37 -6 14 -10 15 -21 5 -12
-9 -17 -7 -26 10 -10 19 -9 20 17 14 15 -4 31 -12 35 -18z"/>
<path d="M911 793 c7 -12 15 -20 18 -17 3 2 -3 12 -13 22 -17 16 -18 16 -5 -5z"/>
<path d="M754 775 c-9 -14 -14 -31 -11 -39 8 -21 58 -44 103 -50 45 -4 94 24
94 55 0 23 -11 24 -52 3 -27 -14 -37 -14 -72 -3 -23 7 -44 12 -48 11 -12 -3
-9 23 4 36 7 7 9 12 5 12 -3 0 -14 -11 -23 -25z"/>
<path d="M810 620 c-121 -7 -107 -12 30 -10 92 1 94 0 77 -17 -14 -14 -33 -18
-84 -17 -58 1 -64 -1 -48 -13 33 -24 87 -16 133 19 36 28 40 34 25 40 -10 3
-20 6 -23 5 -3 0 -52 -4 -110 -7z"/>
<path d="M557 269 c5 -19 52 -63 60 -56 2 2 -12 20 -31 40 -24 26 -32 31 -29
16z"/>
<path d="M514 267 c-2 -7 6 -42 20 -78 14 -36 28 -94 32 -127 4 -37 11 -62 18
-62 16 0 2 100 -27 195 -12 39 -21 73 -19 78 4 13 -18 7 -24 -6z"/>
<path d="M1060 257 c0 -9 -8 -21 -17 -27 -17 -11 -17 -11 0 -6 18 6 24 -9 7
-19 -5 -3 -10 -30 -11 -58 0 -29 -4 -73 -8 -100 -6 -35 -5 -47 5 -47 15 0 21
27 34 154 7 67 7 103 0 110 -7 7 -10 5 -10 -7z"/>
<path d="M458 254 c-3 -3 5 -40 18 -82 13 -42 27 -98 30 -124 4 -27 12 -48 19
-48 16 0 4 83 -26 183 -22 73 -28 84 -41 71z"/>
<path d="M1108 248 c7 -9 6 -50 -2 -130 -8 -88 -9 -118 0 -118 7 0 16 35 23
88 14 112 14 145 -1 160 -16 16 -33 15 -20 0z"/>
<path d="M398 235 c-3 -3 5 -39 17 -80 13 -40 26 -92 30 -114 7 -44 25 -56 25
-18 0 20 -9 60 -41 180 -9 35 -18 44 -31 32z"/>
<path d="M1175 203 c0 -21 -4 -75 -8 -120 -11 -112 7 -108 22 5 18 127 18 126
8 140 -16 21 -22 14 -22 -25z"/>
<path d="M343 212 c-9 -5 -7 -23 7 -67 11 -33 24 -79 30 -102 6 -24 15 -43 21
-43 11 0 2 62 -22 149 -21 73 -21 72 -36 63z"/>
<path d="M594 192 c3 -9 10 -39 16 -67 21 -97 31 -125 44 -125 11 0 10 14 -4
73 -10 39 -21 84 -24 98 -3 15 -13 30 -22 33 -11 4 -14 1 -10 -12z"/>
<path d="M1242 199 c3 -8 -3 -54 -13 -104 -10 -49 -16 -91 -13 -94 8 -8 24 22
24 46 0 12 4 32 9 45 16 43 17 111 2 116 -9 3 -12 0 -9 -9z"/>
<path d="M701 188 c-2 -15 42 -173 51 -183 6 -6 7 1 2 20 -11 47 -52 171 -53
163z"/>
<path d="M1296 172 c3 -10 -3 -53 -14 -95 -24 -94 -13 -102 17 -12 25 77 26
98 7 114 -12 10 -14 9 -10 -7z"/>
<path d="M276 172 c-9 -14 50 -167 65 -170 12 -2 9 16 -15 88 -28 84 -38 101
-50 82z"/>
<path d="M230 150 c-1 -3 -3 -13 -5 -23 -2 -10 -10 -26 -18 -35 -18 -21 -33
-97 -18 -87 6 3 11 13 11 22 0 9 9 36 21 60 11 23 18 49 16 55 -3 7 -6 11 -7
8z"/>
<path d="M1347 126 c3 -13 -5 -45 -16 -71 -25 -57 -25 -55 -6 -55 9 0 15 9 15
24 0 14 5 28 10 31 6 3 10 -5 10 -19 0 -14 5 -28 12 -32 8 -5 9 0 4 17 -3 13
-9 38 -12 54 l-5 30 15 -25 c20 -32 20 -22 1 23 -18 43 -34 56 -28 23z"/>
<path d="M228 50 c-9 -28 -13 -50 -9 -50 4 0 13 17 20 38 7 20 15 43 17 50 3
6 2 12 -3 12 -5 0 -16 -23 -25 -50z"/>
<path d="M273 33 c-7 -20 -8 -33 -2 -33 13 0 22 24 17 47 -3 13 -7 9 -15 -14z"/>
<path d="M1391 34 c0 -11 3 -14 6 -6 3 7 2 16 -1 19 -3 4 -6 -2 -5 -13z"/>
</g>
</svg>
